<?xml version="1.0" encoding="UTF-8"?>
<svg version="1.1" xmlns="http://www.w3.org/2000/svg" width="500" height="500">
<path d="M0 0 C165 0 330 0 500 0 C500 165 500 330 500 500 C335 500 170 500 0 500 C0 335 0 170 0 0 Z " fill="#FFFEFE" transform="translate(0,0)"/>
<path d="M0 0 C0.99 0 1.98 0 3 0 C3.28085449 0.5168335 3.56170898 1.03366699 3.85107422 1.56616211 C9.61269544 12.15094982 15.4886297 22.64506335 21.640625 33.0078125 C24.59340811 37.98487632 27.45227304 43.01402599 30.30859375 48.046875 C31.93686132 50.98719777 31.93686132 50.98719777 33.78515625 53.578125 C35.33762464 56.67307805 34.94226754 57.70354051 34 61 C32.98699561 63.04094934 31.89566594 65.04381443 30.75390625 67.015625 C30.26365715 67.86874771 30.26365715 67.86874771 29.76350403 68.73910522 C28.70326794 70.58007442 27.6331194 72.41505326 26.5625 74.25 C25.82904582 75.51840302 25.09613808 76.78712218 24.36376953 78.05615234 C22.25214109 81.70975817 20.1273977 85.35555339 18 89 C17.45939941 89.92780273 16.91879883 90.85560547 16.36181641 91.81152344 C11.63707639 99.91153676 6.85066944 107.97470543 2 116 C-1.8154221 114.72819263 -2.08022056 113.57541154 -3.96875 110.1015625 C-4.53464844 109.07361572 -5.10054688 108.04566895 -5.68359375 106.98657227 C-6.28300781 105.87725342 -6.88242187 104.76793457 -7.5 103.625 C-8.75929523 101.33401864 -10.01972405 99.04366003 -11.28125 96.75390625 C-11.90773438 95.61195801 -12.53421875 94.47000977 -13.1796875 93.29345703 C-15.72831066 88.68228128 -18.35162401 84.11692531 -21 79.5625 C-21.44714355 78.79035156 -21.89428711 78.01820313 -22.35498047 77.22265625 C-25.14019347 72.42817861 -27.99263226 67.6820616 -30.9765625 63.0078125 C-32.23907993 60.53096533 -32.854193 58.79532839 -33 56 C-31.69140625 53.21484375 -31.69140625 53.21484375 -29.5625 49.9375 C-28.72786233 48.61835027 -27.89751108 47.29648349 -27.0703125 45.97265625 C-26.59239258 45.20969238 -26.11447266 44.44672852 -25.62207031 43.66064453 C-21.90468135 37.56309714 -18.44447958 31.3090469 -14.92996216 25.09298706 C-12.64166512 21.04924744 -10.33017976 17.01974467 -8 13 C-7.64448059 12.38257935 -7.28896118 11.76515869 -6.92266846 11.12902832 C-5.8577065 9.28951077 -4.77707299 7.46016988 -3.69140625 5.6328125 C-3.05533447 4.5514502 -2.4192627 3.47008789 -1.76391602 2.35595703 C-1.18182373 1.57849121 -0.59973145 0.80102539 0 0 Z " fill="#FFD43D" transform="translate(270,201)"/>
<path d="M0 0 C1.93552734 0.20882812 1.93552734 0.20882812 3.91015625 0.421875 C2.5525309 4.00890648 0.95509338 7.29981318 -0.92578125 10.640625 C-1.48998779 11.64577148 -2.05419434 12.65091797 -2.63549805 13.68652344 C-3.23918213 14.75418945 -3.84286621 15.82185547 -4.46484375 16.921875 C-5.39453979 18.57364746 -5.39453979 18.57364746 -6.34301758 20.25878906 C-11.41807142 29.26356392 -16.52665083 38.24940823 -21.6640625 47.21875 C-22.08606934 47.96060547 -22.50807617 48.70246094 -22.94287109 49.46679688 C-23.87550516 51.05652305 -24.88783181 52.59929023 -25.921875 54.125 C-27.48597917 57.20089717 -27.56765753 59.00038702 -27.08984375 62.421875 C-25.85302178 64.94903527 -24.59129693 67.18749025 -23.08984375 69.546875 C-22.17722574 71.03755816 -21.26727273 72.52987477 -20.359375 74.0234375 C-19.59101318 75.28075684 -19.59101318 75.28075684 -18.80712891 76.56347656 C-15.73346711 81.67954598 -12.79119308 86.87150235 -9.83862305 92.05804443 C-8.79840673 93.88488396 -7.75594482 95.71042413 -6.71289062 97.53564453 C-4.83249823 100.82763106 -2.96118089 104.12473234 -1.08984375 107.421875 C-0.56471191 108.33710938 -0.03958008 109.25234375 0.50146484 110.1953125 C1.18909912 111.40574219 1.18909912 111.40574219 1.890625 112.640625 C2.28531982 113.33091797 2.68001465 114.02121094 3.08666992 114.73242188 C3.91015625 116.421875 3.91015625 116.421875 3.91015625 118.421875 C-2.35984375 118.421875 -8.62984375 118.421875 -15.08984375 118.421875 C-16.20359375 116.2975 -17.31734375 114.173125 -18.46484375 111.984375 C-21.40061363 106.44786625 -24.45802598 101.00052841 -27.65234375 95.609375 C-28.05018066 94.93293945 -28.44801758 94.25650391 -28.85791016 93.55957031 C-31.23342772 89.52833419 -33.63791335 85.51667866 -36.07261658 81.52085876 C-37.49073254 79.18351155 -38.89128992 76.83591084 -40.28927612 74.48648071 C-41.32497076 72.75917974 -42.38220599 71.04485379 -43.43969727 69.33081055 C-44.07190186 68.26386963 -44.70410645 67.19692871 -45.35546875 66.09765625 C-45.93071289 65.14802002 -46.50595703 64.19838379 -47.09863281 63.2199707 C-48.40672757 59.52734164 -47.67931278 57.939273 -46.08984375 54.421875 C-45.33719343 52.91705868 -44.53763149 51.43472371 -43.69140625 49.98046875 C-43.21791748 49.1598999 -42.74442871 48.33933105 -42.2565918 47.49389648 C-41.74781494 46.62450439 -41.23903809 45.7551123 -40.71484375 44.859375 C-39.63003624 42.98447456 -38.54540601 41.10947154 -37.4609375 39.234375 C-36.6253833 37.79578125 -36.6253833 37.79578125 -35.77294922 36.328125 C-33.60212915 32.57972899 -31.45511434 28.81813782 -29.31567383 25.05175781 C-28.29571268 23.26662347 -27.26567961 21.48720376 -26.2253418 19.71386719 C-24.06585415 16.01914359 -22.00878444 12.42851456 -20.44921875 8.4375 C-16.18897911 -1.53426971 -9.80017694 -0.75814684 0 0 Z " fill="#FFD540" transform="translate(219.08984375,199.578125)"/>
<path d="M0 0 C6.27 0 12.54 0 19 0 C18.09857438 3.60570248 17.1596351 5.70043892 15.296875 8.83203125 C14.73444092 9.7852124 14.17200684 10.73839355 13.5925293 11.72045898 C12.98449463 12.74083252 12.37645996 13.76120605 11.75 14.8125 C6.05259612 24.46308372 0.47489843 34.17139056 -4.99902344 43.95043945 C-5.51110352 44.86269287 -6.02318359 45.77494629 -6.55078125 46.71484375 C-7.00106689 47.52042725 -7.45135254 48.32601074 -7.9152832 49.15600586 C-9 51 -9 51 -10 52 C-11.34267413 52.08631874 -12.68974322 52.10706473 -14.03515625 52.09765625 C-14.84404297 52.09443359 -15.65292969 52.09121094 -16.48632812 52.08789062 C-17.33646484 52.07951172 -18.18660156 52.07113281 -19.0625 52.0625 C-19.91650391 52.05798828 -20.77050781 52.05347656 -21.65039062 52.04882812 C-23.76695663 52.03700373 -25.88348685 52.01906769 -28 52 C-27.43258441 48.48294535 -26.56046784 45.83517652 -24.76953125 42.76171875 C-24.30264893 41.95259033 -23.8357666 41.14346191 -23.35473633 40.30981445 C-22.59132935 39.0117688 -22.59132935 39.0117688 -21.8125 37.6875 C-21.28873779 36.78410889 -20.76497559 35.88071777 -20.2253418 34.94995117 C-18.49076207 31.96237889 -16.74574259 28.98106151 -15 26 C-13.70789108 23.78411199 -12.41623174 21.56796177 -11.125 19.3515625 C-9.23869748 16.11458604 -7.3510934 12.87842128 -5.45825195 9.64526367 C-4.89066162 8.67564697 -4.32307129 7.70603027 -3.73828125 6.70703125 C-3.23337158 5.8456958 -2.72846191 4.98436035 -2.20825195 4.09692383 C-1.4337172 2.75271713 -0.69380051 1.38760102 0 0 Z " fill="#FFD540" transform="translate(237,200)"/>
<path d="M0 0 C5.99758776 -0.74969847 12.05737646 -1.4424925 18 0 C21.57260414 2.89852789 23.04226979 6.42889061 24.87255859 10.59277344 C27.28544988 15.74459417 30.25028454 20.62133925 33.0625 25.5625 C34.22193367 27.6460895 35.37951677 29.73070995 36.53515625 31.81640625 C39.49467623 37.14422082 42.57670153 42.39122913 45.71264648 47.61694336 C47 50 47 50 47 52 C40.73 52 34.46 52 28 52 C26.96101563 50.10378906 25.92203125 48.20757812 24.8515625 46.25390625 C13.03980641 24.26206837 13.03980641 24.26206837 0 3 C0 2.01 0 1.02 0 0 Z " fill="#FFD542" transform="translate(209,266)"/>
</svg>
