<?xml version="1.0" encoding="UTF-8"?>
<svg version="1.1" xmlns="http://www.w3.org/2000/svg" width="500" height="500">
<path d="M0 0 C1.76150391 -0.02126953 1.76150391 -0.02126953 3.55859375 -0.04296875 C6.5625 0.1875 6.5625 0.1875 8.5625 2.1875 C11.18822862 2.38787746 13.70894803 2.46169742 16.33616829 2.44921303 C17.560324 2.45520712 17.560324 2.45520712 18.80921012 2.46132231 C21.57339754 2.47238521 24.33738773 2.46908292 27.10159302 2.4659729 C29.09147523 2.47097075 31.0813554 2.47684502 33.07123268 2.48352563 C38.56228284 2.49940157 44.05328195 2.50276047 49.54435229 2.50417423 C55.45713444 2.5078551 61.36988815 2.5230039 67.28265381 2.53678894 C78.20347602 2.56056327 89.1242885 2.57544134 100.04513076 2.58611788 C110.1314246 2.59607247 120.2177007 2.61054688 130.30398178 2.62943649 C130.97206345 2.63068536 131.64014512 2.63193423 132.32847169 2.63322094 C135.72115553 2.63958446 139.11383923 2.6460217 142.50652288 2.65248732 C166.55300426 2.69818131 190.59949167 2.73461552 214.64599609 2.765625 C238.01058842 2.79577625 261.37516847 2.83010886 284.73974609 2.87011719 C285.45961799 2.87134819 286.17948989 2.87257919 286.92117609 2.8738475 C294.15025574 2.88621408 301.37933525 2.89866583 308.60841466 2.91117998 C323.33561179 2.93667208 338.06280986 2.96159563 352.79000854 2.98617554 C353.46717963 2.98730645 354.14435071 2.98843736 354.84204212 2.98960253 C400.08218075 3.0650906 445.32233933 3.12686941 490.5625 3.1875 C490.5625 26.9475 490.5625 50.7075 490.5625 75.1875 C482.9725 75.5175 475.3825 75.8475 467.5625 76.1875 C460.60692863 80.87035794 460.60692863 80.87035794 454.65234375 86.1875 C450.42104229 90.39303227 445.88691393 94.12827436 441.25 97.875 C439.85735848 99.0238741 438.46538217 100.17355527 437.07421875 101.32421875 C434.61508663 103.3435061 432.1365008 105.31489788 429.5625 107.1875 C430.82586299 111.25875173 432.33539137 114.90556631 434.36328125 118.65234375 C434.92152588 119.68762207 435.47977051 120.72290039 436.05493164 121.78955078 C436.6555542 122.89024902 437.25617676 123.99094727 437.875 125.125 C438.49947021 126.27726074 439.12394043 127.42952148 439.76733398 128.61669922 C444.31839307 136.99637216 448.9873791 145.3075202 453.70922852 153.59204102 C458.43730508 161.90588388 462.99574782 170.30731104 467.51391602 178.73681641 C468.03010498 179.69765137 468.54629395 180.65848633 469.078125 181.6484375 C469.76310059 182.92920166 469.76310059 182.92920166 470.46191406 184.23583984 C471.41422086 186.1287507 471.41422086 186.1287507 472.5625 187.1875 C473.97577947 187.34370555 475.3960459 187.43806173 476.81640625 187.50390625 C477.67041016 187.54580078 478.52441406 187.58769531 479.40429688 187.63085938 C480.30212891 187.67017578 481.19996094 187.70949219 482.125 187.75 C483.02669922 187.79318359 483.92839844 187.83636719 484.85742188 187.88085938 C487.09228485 187.98728142 489.32726308 188.08929988 491.5625 188.1875 C491.58562524 197.42747552 491.60341601 206.66744114 491.61431217 215.90743923 C491.61954061 220.19749915 491.62663753 224.48753933 491.63793945 228.77758789 C491.64876975 232.914294 491.65477714 237.05098108 491.65737724 241.18770027 C491.65923124 242.76942304 491.66285136 244.35114471 491.66823006 245.93285942 C491.6754424 248.14072838 491.67649086 250.34851773 491.67602539 252.55639648 C491.678246 253.81548325 491.68046661 255.07457001 491.68275452 256.37181091 C491.5625 259.1875 491.5625 259.1875 490.5625 260.1875 C487.48795239 260.28282328 484.43590842 260.3130138 481.36108398 260.30102539 C479.91245972 260.30124443 479.91245972 260.30124443 478.43457031 260.3014679 C475.22588901 260.30076834 472.01726497 260.29297397 468.80859375 260.28515625 C466.59041882 260.28329222 464.37224348 260.28186825 462.15406799 260.28086853 C456.30309929 260.27704216 450.45215523 260.26721086 444.60119629 260.25616455 C438.63582696 260.24595299 432.67045367 260.24137146 426.70507812 260.23632812 C414.99087456 260.22558869 403.27668933 260.20851085 391.5625 260.1875 C389.9825889 257.20179208 388.40538491 254.21466184 386.82861328 251.22729492 C386.16669731 249.9765279 386.16669731 249.9765279 385.4914093 248.70049286 C381.28353272 240.72247995 377.33214125 232.63431416 373.4375 224.5 C370.034375 217.4153125 370.034375 217.4153125 366.5625 210.1875 C366.2325 226.3575 365.9025 242.5275 365.5625 259.1875 C361.04992438 259.83215366 357.28014861 260.31270547 352.83010864 260.31448364 C351.73650528 260.31730347 350.64290192 260.32012329 349.51615906 260.32302856 C348.33665176 260.32100433 347.15714447 260.3189801 345.94189453 260.31689453 C344.68426804 260.31864685 343.42664154 260.32039917 342.13090515 260.32220459 C338.69953388 260.32674286 335.26819285 260.325005 331.83682108 260.3218255 C328.24317248 260.31928654 324.64952639 260.32164341 321.05587769 260.32321167 C315.02878353 260.32502747 309.00170166 260.32264105 302.97460938 260.31787109 C295.99954409 260.31241478 289.02450796 260.31420339 282.04944336 260.3196975 C276.05867548 260.32422777 270.0679164 260.32488005 264.07714736 260.32225883 C260.49960913 260.32069748 256.92208463 260.32049871 253.34454727 260.32379532 C249.36526594 260.32720668 245.38601766 260.32248582 241.40673828 260.31689453 C239.61925926 260.31993088 239.61925926 260.31993088 237.79566956 260.32302856 C236.71898514 260.32020874 235.64230072 260.31738892 234.5329895 260.31448364 C233.59171267 260.31410662 232.65043583 260.31372959 231.68063545 260.31334114 C229.5625 260.1875 229.5625 260.1875 228.5625 259.1875 C228.46817015 256.97882169 228.44507569 254.76708479 228.44897461 252.55639648 C228.44882858 251.86374695 228.44868256 251.17109741 228.4485321 250.4574585 C228.44923126 248.15780554 228.45702372 245.85823263 228.46484375 243.55859375 C228.46670792 241.96818588 228.46813183 240.37777743 228.46913147 238.78736877 C228.47295671 234.5935407 228.48278705 230.39974705 228.49383545 226.20593262 C228.50404943 221.92961086 228.50862906 217.65328356 228.51367188 213.37695312 C228.52440932 204.98045116 228.54200616 196.58398382 228.5625 188.1875 C233.5125 188.1875 238.4625 188.1875 243.5625 188.1875 C243.5625 150.8975 243.5625 113.6075 243.5625 75.1875 C242.9025 75.1875 242.2425 75.1875 241.5625 75.1875 C241.56773682 75.87900146 241.57297363 76.57050293 241.57836914 77.28295898 C241.599075 80.39696352 241.61213963 83.51095361 241.625 86.625 C241.63337891 87.71361328 241.64175781 88.80222656 241.65039062 89.92382812 C241.65361328 90.95830078 241.65683594 91.99277344 241.66015625 93.05859375 C241.66539307 94.01693115 241.67062988 94.97526855 241.67602539 95.96264648 C241.5625 98.1875 241.5625 98.1875 240.5625 99.1875 C238.38444281 99.28179342 236.2032872 99.30492538 234.02319336 99.30102539 C233.32921983 99.30114593 232.6352463 99.30126646 231.92024326 99.30139065 C229.66424464 99.30064169 227.40832768 99.29301429 225.15234375 99.28515625 C223.76338745 99.28368678 222.3744306 99.2826661 220.98547363 99.28210449 C215.82364067 99.27685224 210.66181954 99.26289114 205.5 99.25 C193.970625 99.229375 182.44125 99.20875 170.5625 99.1875 C170.5625 128.5575 170.5625 157.9275 170.5625 188.1875 C177.4925 188.1875 184.4225 188.1875 191.5625 188.1875 C191.5625 211.9475 191.5625 235.7075 191.5625 260.1875 C154.48818663 260.22780303 154.48818663 260.22780303 139.00195312 260.23632812 C128.29141768 260.24227141 117.58089008 260.24927388 106.87036133 260.26293945 C99.07139612 260.27288545 91.27243724 260.27935322 83.47346586 260.28158849 C79.34137814 260.28289575 75.20930856 260.28598251 71.07722664 260.29323006 C67.19248474 260.29998894 63.30776854 260.30211723 59.42302132 260.30060768 C57.99310161 260.30088407 56.56318109 260.30288998 55.13326645 260.30670547 C53.18931949 260.31164059 51.24535891 260.30989805 49.30140686 260.30775452 C48.21092576 260.30867631 47.12044466 260.3095981 45.99691868 260.31054783 C43.5625 260.1875 43.5625 260.1875 42.5625 259.1875 C42.46817015 256.97882169 42.44507569 254.76708479 42.44897461 252.55639648 C42.44882858 251.86374695 42.44868256 251.17109741 42.4485321 250.4574585 C42.44923126 248.15780554 42.45702372 245.85823263 42.46484375 243.55859375 C42.46670792 241.96818588 42.46813183 240.37777743 42.46913147 238.78736877 C42.47295671 234.5935407 42.48278705 230.39974705 42.49383545 226.20593262 C42.50404943 221.92961086 42.50862906 217.65328356 42.51367188 213.37695312 C42.52440931 204.98045292 42.54148581 196.58398074 42.5625 188.1875 C46.5625 187.1875 46.5625 187.1875 63.5625 188.1875 C63.5625 158.8175 63.5625 129.4475 63.5625 99.1875 C40.57042293 99.22711406 40.57042293 99.22711406 17.57836914 99.27758789 C13.13952637 99.28210449 13.13952637 99.28210449 11.06394958 99.28294373 C9.60899042 99.28448303 8.15403257 99.28800768 6.69908142 99.29307556 C4.49996715 99.30035502 2.30093108 99.30140735 0.10180664 99.30102539 C-1.76017616 99.30435631 -1.76017616 99.30435631 -3.65977478 99.30775452 C-6.4375 99.1875 -6.4375 99.1875 -7.4375 98.1875 C-7.53812747 95.17936514 -7.5736474 92.19414971 -7.56689453 89.18554688 C-7.56864685 88.2409108 -7.57039917 87.29627472 -7.57220459 86.32301331 C-7.5766248 83.1840738 -7.57368452 80.04519013 -7.5703125 76.90625 C-7.57098549 74.73531076 -7.57195547 72.5643716 -7.57321167 70.39343262 C-7.57468887 65.83698817 -7.57253337 61.28056328 -7.56787109 56.72412109 C-7.5621738 50.86923414 -7.56545268 45.01439302 -7.57144356 39.15950775 C-7.57504857 34.67469942 -7.57391086 30.18990204 -7.57131577 25.70509338 C-7.57064633 23.54561864 -7.5714755 21.38614291 -7.57379532 19.22666931 C-7.57632086 16.21423692 -7.57248264 13.20187987 -7.56689453 10.18945312 C-7.56891876 9.28759781 -7.57094299 8.38574249 -7.57302856 7.45655823 C-7.54759741 0.09637286 -7.26739543 0.03979954 0 0 Z M351.5625 75.1875 C351.8925 75.8475 352.2225 76.5075 352.5625 77.1875 C353.2225 76.5275 353.8825 75.8675 354.5625 75.1875 C353.5725 75.1875 352.5825 75.1875 351.5625 75.1875 Z M350.5625 177.1875 C350.5625 180.4875 350.5625 183.7875 350.5625 187.1875 C353.0375 187.6825 353.0375 187.6825 355.5625 188.1875 C354.95551257 184.05998551 353.52439209 180.8553852 351.5625 177.1875 C351.2325 177.1875 350.9025 177.1875 350.5625 177.1875 Z " fill="#FDDD59" transform="translate(7.4375,134.8125)"/>
<path d="M0 0 C37.29 0 74.58 0 113 0 C113 16.5 113 33 113 50 C108.38 50 103.76 50 99 50 C99.33 62.54 99.66 75.08 100 88 C104.62 84.04 109.24 80.08 114 76 C116.31 74.02 118.62 72.04 121 70 C122.13824219 69.02417969 123.27648437 68.04835938 124.44921875 67.04296875 C126.95085598 64.89860819 129.45366078 62.75561809 131.95703125 60.61328125 C132.92479492 59.78473633 132.92479492 59.78473633 133.91210938 58.93945312 C135.15661416 57.87401377 136.4013954 56.80889723 137.64648438 55.74414062 C140.38533253 53.44020526 140.38533253 53.44020526 143 51 C137.39 50.67 131.78 50.34 126 50 C126 33.5 126 17 126 0 C163.29 0 200.58 0 239 0 C239 16.5 239 33 239 50 C230.585 50.495 230.585 50.495 222 51 C217.98453682 54.0000587 215.27618453 56.40989535 212 60 C210.42293993 61.32462636 208.81810856 62.6168787 207.1875 63.875 C202.64511132 67.45471604 198.23463126 71.16828685 193.8347168 74.91992188 C189.706123 78.42986912 185.49744375 81.8221927 181.21875 85.1484375 C178.65346834 87.28918311 176.33253497 89.60997297 174 92 C183.05086838 108.81814208 183.05086838 108.81814208 192.3425293 125.50366211 C195.14763278 130.46011356 197.90707092 135.44085932 200.64962769 140.4322052 C202.3733741 143.56881147 204.10424631 146.70097283 205.85253906 149.82397461 C209.19071046 155.80104486 212.41897496 161.77956248 215.39453125 167.94921875 C215.93174805 169.0158374 216.46896484 170.08245605 217.02246094 171.18139648 C218.01909328 173.1672354 218.97241163 175.17566359 219.87207031 177.20727539 C221.33931198 180.34280105 221.33931198 180.34280105 225 184 C229.95 184.33 234.9 184.66 240 185 C240 201.17 240 217.34 240 234 C212.61 234 185.22 234 157 234 C151.555 222.615 151.555 222.615 146 211 C143.77422094 206.37329861 141.54661036 201.7476604 139.3125 197.125 C138.74362061 195.94663574 138.17474121 194.76827148 137.58862305 193.55419922 C134.28760516 186.71886881 130.97559013 179.88895089 127.65625 173.0625 C126.92535338 171.55844118 126.1944776 170.05437223 125.46362305 168.55029297 C124.05808004 165.65778819 122.65037971 162.76634711 121.24145508 159.87548828 C120.59448567 158.54463433 119.94759073 157.21374418 119.30078125 155.8828125 C118.73528564 154.72152832 118.16979004 153.56024414 117.5871582 152.36376953 C115.97119247 148.93894629 114.47043705 145.48920089 113 142 C111.77004051 142.9156026 110.54107614 143.83254203 109.3125 144.75 C108.62800781 145.26046875 107.94351563 145.7709375 107.23828125 146.296875 C106.49964844 146.85890625 105.76101563 147.4209375 105 148 C104.14341797 148.53818359 103.28683594 149.07636719 102.40429688 149.63085938 C99.70283099 152.29282372 99.39203564 153.75337883 99.28105164 157.48455811 C99.28498428 158.18574768 99.28891693 158.88693726 99.29296875 159.609375 C99.27784744 160.33618469 99.26272614 161.06299438 99.24714661 161.81182861 C99.20428432 164.12486833 99.19543412 166.43660281 99.1875 168.75 C99.16435419 170.32164925 99.13898865 171.89326748 99.11132812 173.46484375 C99.04849166 177.3100111 99.01614483 181.15436458 99 185 C103.62 185 108.24 185 113 185 C113 201.17 113 217.34 113 234 C75.71 234 38.42 234 0 234 C0 217.83 0 201.66 0 185 C4.95 185 9.9 185 15 185 C15 140.45 15 95.9 15 50 C10.05 50 5.1 50 0 50 C0 33.5 0 17 0 0 Z " fill="#FDDD59" transform="translate(248,149)"/>
<path d="M0 0 C1.76150391 -0.02126953 1.76150391 -0.02126953 3.55859375 -0.04296875 C6.5625 0.1875 6.5625 0.1875 8.5625 2.1875 C11.18822862 2.38787746 13.70894803 2.46169742 16.33616829 2.44921303 C17.560324 2.45520712 17.560324 2.45520712 18.80921012 2.46132231 C21.57339754 2.47238521 24.33738773 2.46908292 27.10159302 2.4659729 C29.09147523 2.47097075 31.0813554 2.47684502 33.07123268 2.48352563 C38.56228284 2.49940157 44.05328195 2.50276047 49.54435229 2.50417423 C55.45713444 2.5078551 61.36988815 2.5230039 67.28265381 2.53678894 C78.20347602 2.56056327 89.1242885 2.57544134 100.04513076 2.58611788 C110.1314246 2.59607247 120.2177007 2.61054688 130.30398178 2.62943649 C130.97206345 2.63068536 131.64014512 2.63193423 132.32847169 2.63322094 C135.72115553 2.63958446 139.11383923 2.6460217 142.50652288 2.65248732 C166.55300426 2.69818131 190.59949167 2.73461552 214.64599609 2.765625 C238.01058842 2.79577625 261.37516847 2.83010886 284.73974609 2.87011719 C285.45961799 2.87134819 286.17948989 2.87257919 286.92117609 2.8738475 C294.15025574 2.88621408 301.37933525 2.89866583 308.60841466 2.91117998 C323.33561179 2.93667208 338.06280986 2.96159563 352.79000854 2.98617554 C353.46717963 2.98730645 354.14435071 2.98843736 354.84204212 2.98960253 C400.08218075 3.0650906 445.32233933 3.12686941 490.5625 3.1875 C490.5625 26.9475 490.5625 50.7075 490.5625 75.1875 C482.9725 75.5175 475.3825 75.8475 467.5625 76.1875 C460.60692863 80.87035794 460.60692863 80.87035794 454.65234375 86.1875 C450.42104229 90.39303227 445.88691393 94.12827436 441.25 97.875 C439.85735848 99.0238741 438.46538217 100.17355527 437.07421875 101.32421875 C434.61508663 103.3435061 432.1365008 105.31489788 429.5625 107.1875 C430.82586299 111.25875173 432.33539137 114.90556631 434.36328125 118.65234375 C434.92152588 119.68762207 435.47977051 120.72290039 436.05493164 121.78955078 C436.6555542 122.89024902 437.25617676 123.99094727 437.875 125.125 C438.49947021 126.27726074 439.12394043 127.42952148 439.76733398 128.61669922 C444.31839307 136.99637216 448.9873791 145.3075202 453.70922852 153.59204102 C458.43730508 161.90588388 462.99574782 170.30731104 467.51391602 178.73681641 C468.03010498 179.69765137 468.54629395 180.65848633 469.078125 181.6484375 C469.76310059 182.92920166 469.76310059 182.92920166 470.46191406 184.23583984 C471.41422086 186.1287507 471.41422086 186.1287507 472.5625 187.1875 C473.97577947 187.34370555 475.3960459 187.43806173 476.81640625 187.50390625 C477.67041016 187.54580078 478.52441406 187.58769531 479.40429688 187.63085938 C480.30212891 187.67017578 481.19996094 187.70949219 482.125 187.75 C483.02669922 187.79318359 483.92839844 187.83636719 484.85742188 187.88085938 C487.09228485 187.98728142 489.32726308 188.08929988 491.5625 188.1875 C491.58562524 197.42747552 491.60341601 206.66744114 491.61431217 215.90743923 C491.61954061 220.19749915 491.62663753 224.48753933 491.63793945 228.77758789 C491.64876975 232.914294 491.65477714 237.05098108 491.65737724 241.18770027 C491.65923124 242.76942304 491.66285136 244.35114471 491.66823006 245.93285942 C491.6754424 248.14072838 491.67649086 250.34851773 491.67602539 252.55639648 C491.678246 253.81548325 491.68046661 255.07457001 491.68275452 256.37181091 C491.5625 259.1875 491.5625 259.1875 490.5625 260.1875 C487.48795239 260.28282328 484.43590842 260.3130138 481.36108398 260.30102539 C479.91245972 260.30124443 479.91245972 260.30124443 478.43457031 260.3014679 C475.22588901 260.30076834 472.01726497 260.29297397 468.80859375 260.28515625 C466.59041882 260.28329222 464.37224348 260.28186825 462.15406799 260.28086853 C456.30309929 260.27704216 450.45215523 260.26721086 444.60119629 260.25616455 C438.63582696 260.24595299 432.67045367 260.24137146 426.70507812 260.23632812 C414.99087456 260.22558869 403.27668933 260.20851085 391.5625 260.1875 C389.9825889 257.20179208 388.40538491 254.21466184 386.82861328 251.22729492 C386.16669731 249.9765279 386.16669731 249.9765279 385.4914093 248.70049286 C381.28353272 240.72247995 377.33214125 232.63431416 373.4375 224.5 C370.034375 217.4153125 370.034375 217.4153125 366.5625 210.1875 C366.2325 226.3575 365.9025 242.5275 365.5625 259.1875 C361.04992438 259.83215366 357.28014861 260.31270547 352.83010864 260.31448364 C351.73650528 260.31730347 350.64290192 260.32012329 349.51615906 260.32302856 C348.33665176 260.32100433 347.15714447 260.3189801 345.94189453 260.31689453 C344.68426804 260.31864685 343.42664154 260.32039917 342.13090515 260.32220459 C338.69953388 260.32674286 335.26819285 260.325005 331.83682108 260.3218255 C328.24317248 260.31928654 324.64952639 260.32164341 321.05587769 260.32321167 C315.02878353 260.32502747 309.00170166 260.32264105 302.97460938 260.31787109 C295.99954409 260.31241478 289.02450796 260.31420339 282.04944336 260.3196975 C276.05867548 260.32422777 270.0679164 260.32488005 264.07714736 260.32225883 C260.49960913 260.32069748 256.92208463 260.32049871 253.34454727 260.32379532 C249.36526594 260.32720668 245.38601766 260.32248582 241.40673828 260.31689453 C239.61925926 260.31993088 239.61925926 260.31993088 237.79566956 260.32302856 C236.71898514 260.32020874 235.64230072 260.31738892 234.5329895 260.31448364 C233.59171267 260.31410662 232.65043583 260.31372959 231.68063545 260.31334114 C229.5625 260.1875 229.5625 260.1875 228.5625 259.1875 C228.46817015 256.97882169 228.44507569 254.76708479 228.44897461 252.55639648 C228.44882858 251.86374695 228.44868256 251.17109741 228.4485321 250.4574585 C228.44923126 248.15780554 228.45702372 245.85823263 228.46484375 243.55859375 C228.46670792 241.96818588 228.46813183 240.37777743 228.46913147 238.78736877 C228.47295671 234.5935407 228.48278705 230.39974705 228.49383545 226.20593262 C228.50404943 221.92961086 228.50862906 217.65328356 228.51367188 213.37695312 C228.52440932 204.98045116 228.54200616 196.58398382 228.5625 188.1875 C233.5125 188.1875 238.4625 188.1875 243.5625 188.1875 C243.5625 150.8975 243.5625 113.6075 243.5625 75.1875 C242.9025 75.1875 242.2425 75.1875 241.5625 75.1875 C241.56773682 75.87900146 241.57297363 76.57050293 241.57836914 77.28295898 C241.599075 80.39696352 241.61213963 83.51095361 241.625 86.625 C241.63337891 87.71361328 241.64175781 88.80222656 241.65039062 89.92382812 C241.65361328 90.95830078 241.65683594 91.99277344 241.66015625 93.05859375 C241.66539307 94.01693115 241.67062988 94.97526855 241.67602539 95.96264648 C241.5625 98.1875 241.5625 98.1875 240.5625 99.1875 C238.38444281 99.28179342 236.2032872 99.30492538 234.02319336 99.30102539 C233.32921983 99.30114593 232.6352463 99.30126646 231.92024326 99.30139065 C229.66424464 99.30064169 227.40832768 99.29301429 225.15234375 99.28515625 C223.76338745 99.28368678 222.3744306 99.2826661 220.98547363 99.28210449 C215.82364067 99.27685224 210.66181954 99.26289114 205.5 99.25 C193.970625 99.229375 182.44125 99.20875 170.5625 99.1875 C170.5625 128.5575 170.5625 157.9275 170.5625 188.1875 C177.4925 188.1875 184.4225 188.1875 191.5625 188.1875 C191.5625 211.9475 191.5625 235.7075 191.5625 260.1875 C154.48818663 260.22780303 154.48818663 260.22780303 139.00195312 260.23632812 C128.29141768 260.24227141 117.58089008 260.24927388 106.87036133 260.26293945 C99.07139612 260.27288545 91.27243724 260.27935322 83.47346586 260.28158849 C79.34137814 260.28289575 75.20930856 260.28598251 71.07722664 260.29323006 C67.19248474 260.29998894 63.30776854 260.30211723 59.42302132 260.30060768 C57.99310161 260.30088407 56.56318109 260.30288998 55.13326645 260.30670547 C53.18931949 260.31164059 51.24535891 260.30989805 49.30140686 260.30775452 C48.21092576 260.30867631 47.12044466 260.3095981 45.99691868 260.31054783 C43.5625 260.1875 43.5625 260.1875 42.5625 259.1875 C42.46817015 256.97882169 42.44507569 254.76708479 42.44897461 252.55639648 C42.44882858 251.86374695 42.44868256 251.17109741 42.4485321 250.4574585 C42.44923126 248.15780554 42.45702372 245.85823263 42.46484375 243.55859375 C42.46670792 241.96818588 42.46813183 240.37777743 42.46913147 238.78736877 C42.47295671 234.5935407 42.48278705 230.39974705 42.49383545 226.20593262 C42.50404943 221.92961086 42.50862906 217.65328356 42.51367188 213.37695312 C42.52440931 204.98045292 42.54148581 196.58398074 42.5625 188.1875 C46.5625 187.1875 46.5625 187.1875 63.5625 188.1875 C63.5625 158.8175 63.5625 129.4475 63.5625 99.1875 C40.57042293 99.22711406 40.57042293 99.22711406 17.57836914 99.27758789 C13.13952637 99.28210449 13.13952637 99.28210449 11.06394958 99.28294373 C9.60899042 99.28448303 8.15403257 99.28800768 6.69908142 99.29307556 C4.49996715 99.30035502 2.30093108 99.30140735 0.10180664 99.30102539 C-1.76017616 99.30435631 -1.76017616 99.30435631 -3.65977478 99.30775452 C-6.4375 99.1875 -6.4375 99.1875 -7.4375 98.1875 C-7.53812747 95.17936514 -7.5736474 92.19414971 -7.56689453 89.18554688 C-7.56864685 88.2409108 -7.57039917 87.29627472 -7.57220459 86.32301331 C-7.5766248 83.1840738 -7.57368452 80.04519013 -7.5703125 76.90625 C-7.57098549 74.73531076 -7.57195547 72.5643716 -7.57321167 70.39343262 C-7.57468887 65.83698817 -7.57253337 61.28056328 -7.56787109 56.72412109 C-7.5621738 50.86923414 -7.56545268 45.01439302 -7.57144356 39.15950775 C-7.57504857 34.67469942 -7.57391086 30.18990204 -7.57131577 25.70509338 C-7.57064633 23.54561864 -7.5714755 21.38614291 -7.57379532 19.22666931 C-7.57632086 16.21423692 -7.57248264 13.20187987 -7.56689453 10.18945312 C-7.56891876 9.28759781 -7.57094299 8.38574249 -7.57302856 7.45655823 C-7.54759741 0.09637286 -7.26739543 0.03979954 0 0 Z M3.5625 14.1875 C3.5625 38.2775 3.5625 62.3675 3.5625 87.1875 C20.7225 87.1875 37.8825 87.1875 55.5625 87.1875 C55.5625 79.5975 55.5625 72.0075 55.5625 64.1875 C61.8325 64.1875 68.1025 64.1875 74.5625 64.1875 C74.5625 108.7375 74.5625 153.2875 74.5625 199.1875 C67.6325 199.1875 60.7025 199.1875 53.5625 199.1875 C53.5625 215.3575 53.5625 231.5275 53.5625 248.1875 C95.4725 248.1875 137.3825 248.1875 180.5625 248.1875 C180.5625 232.0175 180.5625 215.8475 180.5625 199.1875 C173.6325 199.1875 166.7025 199.1875 159.5625 199.1875 C159.5625 154.6375 159.5625 110.0875 159.5625 64.1875 C165.8325 64.1875 172.1025 64.1875 178.5625 64.1875 C178.5625 71.7775 178.5625 79.3675 178.5625 87.1875 C195.7225 87.1875 212.8825 87.1875 230.5625 87.1875 C230.5625 63.0975 230.5625 39.0075 230.5625 14.1875 C155.6525 14.1875 80.7425 14.1875 3.5625 14.1875 Z M240.5625 14.1875 C240.5625 30.6875 240.5625 47.1875 240.5625 64.1875 C245.5125 64.1875 250.4625 64.1875 255.5625 64.1875 C255.5625 108.7375 255.5625 153.2875 255.5625 199.1875 C250.6125 199.1875 245.6625 199.1875 240.5625 199.1875 C240.5625 215.3575 240.5625 231.5275 240.5625 248.1875 C277.8525 248.1875 315.1425 248.1875 353.5625 248.1875 C353.5625 232.0175 353.5625 215.8475 353.5625 199.1875 C348.9425 199.1875 344.3225 199.1875 339.5625 199.1875 C339.42858645 194.66019183 339.33343884 190.16274307 339.33056641 185.63769531 C339.31865875 184.10514821 339.28562052 182.57259866 339.22998047 181.04101562 C338.8009223 168.63880606 338.8009223 168.63880606 341.80053711 164.46472168 C345.00332684 161.13288276 348.63750927 158.59848088 352.5625 156.1875 C354.60537463 158.23037463 355.42029021 159.73368161 356.63671875 162.32421875 C357.04921875 163.195625 357.46171875 164.06703125 357.88671875 164.96484375 C358.33660156 165.92519531 358.78648437 166.88554687 359.25 167.875 C360.2426788 169.97304006 361.23621476 172.07067471 362.23046875 174.16796875 C362.76591309 175.29895996 363.30135742 176.42995117 363.85302734 177.59521484 C366.57320953 183.31140461 369.33659774 189.00650944 372.09954834 194.70211792 C376.9626442 204.72868911 381.8124425 214.76155477 386.625 224.8125 C387.04136719 225.68068359 387.45773437 226.54886719 387.88671875 227.44335938 C391.1785208 234.32959689 394.36308095 241.2554254 397.5625 248.1875 C424.9525 248.1875 452.3425 248.1875 480.5625 248.1875 C480.5625 232.0175 480.5625 215.8475 480.5625 199.1875 C475.6125 198.8575 470.6625 198.5275 465.5625 198.1875 C462.06799638 194.0241138 460.29601569 191.23805201 458.125 186.4375 C457.51774314 185.21228681 456.90423011 183.99015707 456.28491211 182.77099609 C454.99228808 180.21435278 453.72765003 177.64647972 452.48046875 175.06738281 C449.74297479 169.46118832 446.67787403 164.03975228 443.62557983 158.60079956 C441.94976317 155.60567403 440.29848428 152.59707929 438.64453125 149.58984375 C436.18467969 145.12486123 433.71984907 140.66266377 431.25047302 136.20294189 C429.78857684 133.56263213 428.32784444 130.92167929 426.86715698 128.28070068 C426.17414566 127.0284716 425.48057925 125.77654954 424.78640747 124.52496338 C421.24501642 118.13933879 417.76033773 111.75275776 414.5625 105.1875 C421.48287187 99.30133315 428.4250249 93.44950177 435.46875 87.7109375 C439.42497151 84.48401945 443.36972195 81.24332141 447.3125 78 C448.02180664 77.41758545 448.73111328 76.8351709 449.46191406 76.23510742 C450.14995117 75.66896729 450.83798828 75.10282715 451.546875 74.51953125 C452.23587891 73.9673291 452.92488281 73.41512695 453.63476562 72.84619141 C455.57381299 71.26298448 455.57381299 71.26298448 457.03710938 69.46240234 C463.50719185 62.29360225 468.57853403 64.83361565 479.5625 64.1875 C479.5625 47.6875 479.5625 31.1875 479.5625 14.1875 C442.2725 14.1875 404.9825 14.1875 366.5625 14.1875 C366.5625 30.6875 366.5625 47.1875 366.5625 64.1875 C372.1725 64.5175 377.7825 64.8475 383.5625 65.1875 C376.9250183 71.35645358 370.27560249 77.32085653 363.21484375 83.00390625 C359.81298934 85.80454928 356.56967615 88.75769645 353.33984375 91.75390625 C349.20418058 95.37770112 344.85625604 98.75249517 340.5625 102.1875 C340.2325 89.6475 339.9025 77.1075 339.5625 64.1875 C344.1825 64.1875 348.8025 64.1875 353.5625 64.1875 C353.5625 47.6875 353.5625 31.1875 353.5625 14.1875 C316.2725 14.1875 278.9825 14.1875 240.5625 14.1875 Z M351.5625 75.1875 C351.8925 75.8475 352.2225 76.5075 352.5625 77.1875 C353.2225 76.5275 353.8825 75.8675 354.5625 75.1875 C353.5725 75.1875 352.5825 75.1875 351.5625 75.1875 Z M350.5625 177.1875 C350.5625 180.4875 350.5625 183.7875 350.5625 187.1875 C353.0375 187.6825 353.0375 187.6825 355.5625 188.1875 C354.95551257 184.05998551 353.52439209 180.8553852 351.5625 177.1875 C351.2325 177.1875 350.9025 177.1875 350.5625 177.1875 Z " fill="#040201" transform="translate(7.4375,134.8125)"/>
<path d="M0 0 C74.91 0 149.82 0 227 0 C227 24.09 227 48.18 227 73 C209.84 73 192.68 73 175 73 C175 65.41 175 57.82 175 50 C168.4 50 161.8 50 155 50 C155 94.55 155 139.1 155 185 C154.67 185 154.34 185 154 185 C153.97667168 167.28507533 153.95902116 149.57015463 153.94818783 131.85521793 C153.94302473 123.63044281 153.93598177 115.40567721 153.92456055 107.1809082 C153.91461414 100.01479554 153.90814668 92.84868977 153.90591151 85.6825704 C153.90460432 81.88583011 153.90151802 78.08910955 153.89426994 74.29237556 C153.8875104 70.72281098 153.8853829 67.15327437 153.88689232 63.58370399 C153.88648364 61.64085154 153.8810881 59.69800216 153.87557983 57.75515747 C153.8769545 56.60945786 153.87832916 55.46375824 153.87974548 54.28334045 C153.87836279 52.78035699 153.87836279 52.78035699 153.87695217 51.24701023 C154 49 154 49 155 48 C156.47652664 47.90119203 157.95767236 47.86920755 159.4375 47.8671875 C160.33210937 47.86589844 161.22671875 47.86460937 162.1484375 47.86328125 C163.08945313 47.86714844 164.03046875 47.87101562 165 47.875 C166.41152344 47.86919922 166.41152344 47.86919922 167.8515625 47.86328125 C169.19347656 47.86521484 169.19347656 47.86521484 170.5625 47.8671875 C171.38878906 47.86831543 172.21507812 47.86944336 173.06640625 47.87060547 C175 48 175 48 176 49 C176 56.59 176 64.18 176 72 C192.17 72 208.34 72 225 72 C225 48.9 225 25.8 225 2 C151.41 2 77.82 2 2 2 C2 25.1 2 48.2 2 72 C17.84 72 33.68 72 50 72 C49.67 71.01 49.34 70.02 49 69 C49.03708423 66.14736723 49.13919999 63.34401942 49.3125 60.5 C49.34794922 59.72785156 49.38339844 58.95570313 49.41992188 58.16015625 C49.64162504 54.34156745 49.83968498 52.24047253 52 49 C52 56.92 52 64.84 52 73 C34.84 73 17.68 73 0 73 C0 48.91 0 24.82 0 0 Z " fill="#DAC363" transform="translate(11,149)"/>
<path d="M0 0 C37.29 0 74.58 0 113 0 C113 16.5 113 33 113 50 C108.38 50 103.76 50 99 50 C99.33 62.54 99.66 75.08 100 88 C101.32 87.34 102.64 86.68 104 86 C104 86.99 104 87.98 104 89 C102.02 89.33 100.04 89.66 98 90 C96.70512984 86.11538953 96.8767396 82.44116044 96.90234375 78.39453125 C96.9037587 77.55532639 96.90517365 76.71612152 96.90663147 75.85148621 C96.91222785 73.17178784 96.92477965 70.4921731 96.9375 67.8125 C96.94251547 65.99544392 96.94707829 64.17838652 96.95117188 62.36132812 C96.96219609 57.90751987 96.97945822 53.45377411 97 49 C101.18462795 46.90768602 106.32144372 48 111 48 C111 32.82 111 17.64 111 2 C74.7 2 38.4 2 1 2 C1 17.18 1 32.36 1 48 C5.29 48 9.58 48 14 48 C14 48.33 14 48.66 14 49 C9.38 49 4.76 49 0 49 C0 32.83 0 16.66 0 0 Z " fill="#E2CC6B" transform="translate(248,149)"/>
<path d="M0 0 C36.63 0 73.26 0 111 0 C111 15.84 111 31.68 111 48 C106.38 48 101.76 48 97 48 C97 47.67 97 47.34 97 47 C101.29 47 105.58 47 110 47 C109.67 32.15 109.34 17.3 109 2 C95.19658762 1.97745164 81.39318737 1.95908646 67.58976078 1.94818783 C61.18100872 1.94295834 54.77226985 1.9358595 48.36352539 1.92456055 C42.18440559 1.91373401 36.00529852 1.90772366 29.82616997 1.90512276 C27.4629439 1.90326808 25.09971856 1.89964668 22.73649788 1.89426994 C19.43898104 1.88706262 16.14151753 1.88600893 12.84399414 1.88647461 C11.36261963 1.8810817 11.36261963 1.8810817 9.85131836 1.87557983 C8.95804337 1.8769545 8.06476837 1.87832916 7.14442444 1.87974548 C6.36366578 1.87882369 5.58290712 1.8779019 4.77848911 1.87695217 C2.97495786 1.80617057 2.97495786 1.80617057 2 3 C1.9071274 4.41225046 1.88253228 5.82908934 1.88647461 7.24438477 C1.88655014 8.14524307 1.88662567 9.04610138 1.88670349 9.97425842 C1.89186478 10.95341721 1.89702606 11.93257599 1.90234375 12.94140625 C1.9037587 13.93881332 1.90517365 14.9362204 1.90663147 15.96385193 C1.91224886 19.16343124 1.92480429 22.36294169 1.9375 25.5625 C1.94251276 27.72591045 1.94707605 29.88932199 1.95117188 32.05273438 C1.96222393 37.36851325 1.97897896 42.68425171 2 48 C1.34 48 0.68 48 0 48 C0 32.16 0 16.32 0 0 Z " fill="#F6DD6E" transform="translate(375,150)"/>
<path d="M0 0 C5.28 0 10.56 0 16 0 C16 0.33 16 0.66 16 1 C11.38 1 6.76 1 2 1 C2.33 13.54 2.66 26.08 3 39 C4.32 38.34 5.64 37.68 7 37 C7 37.99 7 38.98 7 40 C4.03 40.495 4.03 40.495 1 41 C-0.29487016 37.11538953 -0.1232604 33.44116044 -0.09765625 29.39453125 C-0.0962413 28.55532639 -0.09482635 27.71612152 -0.09336853 26.85148621 C-0.08777215 24.17178784 -0.07522035 21.4921731 -0.0625 18.8125 C-0.05748453 16.99544392 -0.05292171 15.17838652 -0.04882812 13.36132812 C-0.03780391 8.90751987 -0.02054178 4.45377411 0 0 Z " fill="#E8CE66" transform="translate(345,198)"/>
<path d="M0 0 C0.33 0 0.66 0 1 0 C1.19569589 2.56211075 1.38180612 5.12432391 1.5625 7.6875 C1.61857422 8.40873047 1.67464844 9.12996094 1.73242188 9.87304688 C1.99955159 13.77314064 2.00887596 17.21111028 1 21 C1.66 21 2.32 21 3 21 C3 21.66 3 22.32 3 23 C9.93 23 16.86 23 24 23 C24 23.33 24 23.66 24 24 C20.18751574 24.02887236 16.3750593 24.04675492 12.5625 24.0625 C11.47388672 24.07087891 10.38527344 24.07925781 9.26367188 24.08789062 C8.22919922 24.09111328 7.19472656 24.09433594 6.12890625 24.09765625 C5.17056885 24.10289307 4.21223145 24.10812988 3.22485352 24.11352539 C1 24 1 24 0 23 C-0.08713831 21.29227642 -0.10700007 19.58101351 -0.09765625 17.87109375 C-0.09443359 16.83662109 -0.09121094 15.80214844 -0.08789062 14.73632812 C-0.07951172 13.64771484 -0.07113281 12.55910156 -0.0625 11.4375 C-0.05798828 10.34501953 -0.05347656 9.25253906 -0.04882812 8.12695312 C-0.03699826 5.41791505 -0.02051543 2.70898401 0 0 Z " fill="#00000D" transform="translate(236,371)"/>
<path d="M0 0 C0.33 0 0.66 0 1 0 C1.33 12.54 1.66 25.08 2 38 C3.32 37.34 4.64 36.68 6 36 C6 36.99 6 37.98 6 39 C3.03 39.495 3.03 39.495 0 40 C0 26.8 0 13.6 0 0 Z " fill="#E4CF79" transform="translate(346,199)"/>
<path d="M0 0 C-0.33 1.32 -0.66 2.64 -1 4 C-6.94 3.67 -12.88 3.34 -19 3 C-16.17547865 0.17547865 -13.29231854 0.5451227 -9.5 0.375 C-8.81035156 0.33632812 -8.12070312 0.29765625 -7.41015625 0.2578125 C-4.93925938 0.12294873 -2.4749995 0 0 0 Z " fill="#D8C463" transform="translate(394,196)"/>
<path d="M0 0 C0 3.33806496 -0.58108945 4.35678608 -2.3125 7.125 C-2.95638672 8.18074219 -2.95638672 8.18074219 -3.61328125 9.2578125 C-5 11 -5 11 -8 12 C-8.66 11.01 -9.32 10.02 -10 9 C-6.7 6.03 -3.4 3.06 0 0 Z " fill="#EDD563" transform="translate(363,224)"/>
<path d="M0 0 C4.29 0 8.58 0 13 0 C13 0.99 13 1.98 13 3 C8.71 3 4.42 3 0 3 C0 2.01 0 1.02 0 0 Z " fill="#0B1D69" transform="translate(1,135)"/>
<path d="M0 0 C0.66 0.33 1.32 0.66 2 1 C0.6875 3.5 0.6875 3.5 -1 6 C-1.99 6 -2.98 6 -4 6 C-4.33 7.32 -4.66 8.64 -5 10 C-7.49064888 10.68707555 -9.37886292 11 -12 11 C-8.04 7.37 -4.08 3.74 0 0 Z " fill="#EBD26A" transform="translate(377,212)"/>
<path d="M0 0 C0.33 0.99 0.66 1.98 1 3 C1.66 3 2.32 3 3 3 C3 2.01 3 1.02 3 0 C4.32 0.33 5.64 0.66 7 1 C3.535 3.97 3.535 3.97 0 7 C-0.66 6.34 -1.32 5.68 -2 5 C-1.46428571 1.46428571 -1.46428571 1.46428571 0 0 Z " fill="#F3D965" transform="translate(429,227)"/>
<path d="M0 0 C1.32 0.66 2.64 1.32 4 2 C2.54712339 3.33927721 1.08752741 4.67126847 -0.375 6 C-1.18710937 6.7425 -1.99921875 7.485 -2.8359375 8.25 C-5 10 -5 10 -7 10 C-6.67 9.01 -6.34 8.02 -6 7 C-5.34 7 -4.68 7 -4 7 C-3.67 6.01 -3.34 5.02 -3 4 C-2.01 4 -1.02 4 0 4 C0 2.68 0 1.36 0 0 Z " fill="#E4CF68" transform="translate(465,199)"/>
<path d="M0 0 C1.37163873 0.0265051 2.74300063 0.0740941 4.11328125 0.140625 C5.16612305 0.16769531 5.16612305 0.16769531 6.24023438 0.1953125 C7.96933561 0.24236287 9.6977333 0.31410627 11.42578125 0.390625 C11.42578125 0.720625 11.42578125 1.050625 11.42578125 1.390625 C10.62914062 1.43960938 9.8325 1.48859375 9.01171875 1.5390625 C1.04420811 2.09091895 1.04420811 2.09091895 -6.57421875 4.390625 C-4.77807489 0.89468215 -4.00056451 0.43722016 0 0 Z " fill="#160801" transform="translate(473.57421875,198.609375)"/>
<path d="M0 0 C3.28465896 2.79196011 5.01321958 6.23196817 7 10 C7 10.66 7 11.32 7 12 C6.01 12 5.02 12 4 12 C3.3291288 10.3767313 2.66342971 8.75132422 2 7.125 C1.62875 6.22007812 1.2575 5.31515625 0.875 4.3828125 C0 2 0 2 0 0 Z " fill="#DFCB65" transform="translate(465,321)"/>
<path d="M0 0 C1.98 0.495 1.98 0.495 4 1 C3.01 2.485 3.01 2.485 2 4 C2.30840599 6.15274948 2.30840599 6.15274948 3 8 C1.68 7.67 0.36 7.34 -1 7 C-0.67 4.69 -0.34 2.38 0 0 Z " fill="#F2DA6C" transform="translate(420,237)"/>
<path d="M0 0 C0 0.99 0 1.98 0 3 C-1.96875 4.82421875 -1.96875 4.82421875 -4.5 6.6875 C-5.3353125 7.31011719 -6.170625 7.93273437 -7.03125 8.57421875 C-7.6809375 9.04472656 -8.330625 9.51523438 -9 10 C-9 9.01 -9 8.02 -9 7 C-7.03125 5.17578125 -7.03125 5.17578125 -4.5 3.3125 C-3.6646875 2.68988281 -2.829375 2.06726563 -1.96875 1.42578125 C-1.3190625 0.95527344 -0.669375 0.48476562 0 0 Z " fill="#1D1101" transform="translate(460,208)"/>
<path d="M0 0 C1.32 0 2.64 0 4 0 C4 2.64 4 5.28 4 8 C1.84622436 5.37801226 0.59927826 3.35595828 0 0 Z " fill="#F1D76B" transform="translate(399,368)"/>
<path d="M0 0 C3.0916909 2.52956528 3.90931332 5.22454612 5 9 C2.525 8.01 2.525 8.01 0 7 C0 4.69 0 2.38 0 0 Z " fill="#E4CF68" transform="translate(460,312)"/>
<path d="M0 0 C1.65 0 3.3 0 5 0 C5.66 1.65 6.32 3.3 7 5 C6.01 5.495 6.01 5.495 5 6 C4.01 4.68 3.02 3.36 2 2 C1.01 2.495 1.01 2.495 0 3 C0 2.01 0 1.02 0 0 Z " fill="#F2DB6B" transform="translate(358,289)"/>
<path d="M0 0 C2.72426311 2.35277269 3.8141763 4.62496331 5 8 C4.01 8.495 4.01 8.495 3 9 C3 8.01 3 7.02 3 6 C2.01 5.67 1.02 5.34 0 5 C0 3.35 0 1.7 0 0 Z " fill="#E5CD67" transform="translate(444,283)"/>
<path d="M0 0 C1.98 0 3.96 0 6 0 C5.67 0.99 5.34 1.98 5 3 C3.35 3 1.7 3 0 3 C0 2.01 0 1.02 0 0 Z " fill="#1F386B" transform="translate(1,135)"/>
</svg>
